# xmcd
#
# Track frame offsets:
#	150
#	13287
#	25712
#	42892
#	58707
#	73225
#	84525
#	96570
#	112167
#	120687
#	127927
#	139460
#	149172
#	158602
#	170785
#	181992
#	194702
#	213255
#	226267
#	236630
#
# Disc length: 3293 seconds
#
# Revision: 1
# Processed by: cddbd v1.5.1PL0 Copyright (c) Steve Scherf et al.
# Submitted via: audiograbber 1.83.01
#
DISCID=340cdb14
DTITLE=Country - The Country Collection Disk #9
DYEAR=1900
DGENRE=Country
TTITLE0=Kenny Rogers - Ruby Don't Take Your Love To Town
TTITLE1=Kenny Rogers - Ruben James
TTITLE2=Kenny Rogers - Something's Burning
TTITLE3=Kenny Rogers - For The Good Times
TTITLE4=Tom T. Hall - I Like Beer
TTITLE5=Tom T. Hall - Ravishing Ruby
TTITLE6=Tom T. Hall - The Year Clayton Delaney Died
TTITLE7=Tom T. Hall - Old Dogs, Children and Watermelon Wine
TTITLE8=Jim Reeves - According To My Heart
TTITLE9=Jim Reeves - Bimbo
TTITLE10=Jim Reeves - Mexican Joe
TTITLE11=Jim Reeves - He'll Have To Go
TTITLE12=Frankie Laine - Rawhide
TTITLE13=Frankie Laine - High Noon
TTITLE14=Frankie Laine - Mule Train
TTITLE15=Frankie Laine - Cry Of The Wild Goose
TTITLE16=Johnny Russsel - Got No Reason Now For Going Home
TTITLE17=Johnny Russsel - Crystal Chandelier
TTITLE18=Stonewall Jackson - Waterloo
TTITLE19=Stonewall Jackson - Shake 'Em Up Roll 'Em
EXTD=
EXTT0=
EXTT1=
EXTT2=
EXTT3=
EXTT4=
EXTT5=
EXTT6=
EXTT7=
EXTT8=
EXTT9=
EXTT10=
EXTT11=
EXTT12=
EXTT13=
EXTT14=
EXTT15=
EXTT16=
EXTT17=
EXTT18=
EXTT19=
PLAYORDER=
